# xmcd
#
# Track frame offsets: 
#        182
#        16492
#        37117
#        52135
#        64470
#        78710
#        95682
#        112742
#        133215
#        145097
#        168775
#        184372
#        203565
#        224762
#        241417
#        257397
#        272597
#        294037
#        314505
#        334475
#
# Disc length: 4784 seconds
#
# Revision: 8
# Processed by: cddbd v1.5.2PL0 Copyright (c) Steve Scherf et al.
# Submitted via: ExactAudioCopyFreeDBPlugin 1.0
#
DISCID=3812ae14
DTITLE=Ray Charles - Genius and Soul =Jazz  - My Kind Of Jazz
DYEAR=1997
DGENRE=Soul
TTITLE0=From the Heart
TTITLE1=I've Got News for You
TTITLE2=Moanin'
TTITLE3=Let's Go
TTITLE4=One Mint Julep
TTITLE5=I'm Gonna Move to the Outskirts of Town
TTITLE6=Stompin' Room Only
TTITLE7=Mister C
TTITLE8=Strike Up the Band
TTITLE9=Birth of the Blues
TTITLE10=Golden Boy
TTITLE11=Booty-Butt
TTITLE12=This Here
TTITLE13=I Remember Clifford
TTITLE14=Sidewinder
TTITLE15=Bluesette
TTITLE16=Pas-se-o-ne Blues
TTITLE17=Zig Zag
TTITLE18=Angel City
TTITLE19=Señor Blues
EXTD=
EXTT0=
EXTT1=
EXTT2=
EXTT3=
EXTT4=
EXTT5=
EXTT6=
EXTT7=
EXTT8=
EXTT9=
EXTT10=
EXTT11=
EXTT12=
EXTT13=
EXTT14=
EXTT15=
EXTT16=
EXTT17=
EXTT18=
EXTT19=
PLAYORDER=
